<svg xmlns="http://www.w3.org/2000/svg" width="14.137" height="12.488" viewBox="0 0 14.137 12.488">
  <g id="Símbolo_56_1" data-name="Símbolo 56 – 1" transform="translate(-1296.891 -322.041)">
    <path id="Forma_1_copia_20" data-name="Forma 1 copia 20" d="M1306.137,323.69l-1.178-1.649h-5.069v12.488h14.137V323.69Zm1.178,1.649-.841-1.178h7.082v1.178Z" transform="translate(-3)" fill="#575553"/>
    <g id="Grupo_1405" data-name="Grupo 1405" transform="translate(1307.092 334.391) rotate(180)">
      <path id="Trazado_827" data-name="Trazado 827" d="M9.524,45.074l.016,0H2.787L4.91,42.95a.558.558,0,0,0,0-.784l-.33-.33a.553.553,0,0,0-.78,0L.161,45.474a.556.556,0,0,0,0,.783L3.8,49.9a.553.553,0,0,0,.78,0l.33-.33a.547.547,0,0,0,.161-.39.53.53,0,0,0-.161-.383L2.763,46.653H9.532a.572.572,0,0,0,.56-.566v-.467A.561.561,0,0,0,9.524,45.074Z" transform="translate(0 -41.674)" fill="#fff"/>
    </g>
  </g>
</svg>
