<svg xmlns="http://www.w3.org/2000/svg" width="13.996" height="13.55" viewBox="0 0 13.996 13.55">
  <g id="Forma_1" data-name="Forma 1" transform="translate(-1299.549 -205.964)">
    <path id="Forma_1-2" data-name="Forma 1" d="M1300.994,219.514a.3.3,0,0,1-.293-.252l-1.148-7.115a.294.294,0,0,1,.068-.239.3.3,0,0,1,.225-.1h13.4a.3.3,0,0,1,.293.343l-1.148,7.115a.3.3,0,0,1-.293.252Zm10.7-8.176v-2.1h-10.28v2.1h-.935v-4.96a.414.414,0,0,1,.413-.413h3.224a.416.416,0,0,1,.355.2l.58.967h7.165a.414.414,0,0,1,.413.413v3.792Z" fill="#aebdc5"/>
  </g>
</svg>
