<svg xmlns="http://www.w3.org/2000/svg" width="14.146" height="12.488" viewBox="0 0 14.146 12.488">
  <g id="Símbolo_40_2" data-name="Símbolo 40 – 2" transform="translate(-1299.891 -435.949)">
    <path id="Forma_1_copia_22" data-name="Forma 1 copia 22" d="M1306.137,437.6l-1.178-1.649h-5.069v12.488h14.137V437.6Zm1.178,1.649-.841-1.178h7.082v1.178Z" fill="#4caf50"/>
    <path id="Forma_1_copia_18" data-name="Forma 1 copia 18" d="M1313.832,440.823l-1-1a.707.707,0,0,0-1,0l-4.8,4.809-2.152-2.16a.707.707,0,0,0-1,0l-1,1a.707.707,0,0,0,0,1l2.65,2.65,1,1a.707.707,0,0,0,1,0l1-1,5.3-5.3a.707.707,0,0,0,0-1Z" fill="#fafafa"/>
  </g>
</svg>
